HIERARCHY
ROOT Hips
{
 OFFSET 0.000000 0.000000 0.000000
 CHANNELS 6 Xposition Yposition Zposition Yrotation Xrotation Zrotation
 JOINT Chest
 {
  OFFSET 0.000000 12.953391 -0.028419
  CHANNELS 3 Yrotation Xrotation Zrotation
  JOINT Chest2
  {
   OFFSET 0.000000 10.280254 0.051622
   CHANNELS 3 Yrotation Xrotation Zrotation
   JOINT Chest3
   {
    OFFSET 0.000000 9.287180 0.000000
    CHANNELS 3 Yrotation Xrotation Zrotation
    JOINT Chest4
    {
     OFFSET 0.000000 9.287180 0.000000
     CHANNELS 3 Yrotation Xrotation Zrotation
     JOINT Neck
     {
      OFFSET 0.000000 13.296264 0.000000
      CHANNELS 3 Yrotation Xrotation Zrotation
      JOINT Head
      {
       OFFSET 0.000000 8.959264 0.099003
       CHANNELS 3 Yrotation Xrotation Zrotation
       End Site
       {
        OFFSET 0.000000 17.121337 0.039303
       }
      }
     }
     JOINT RightCollar
     {
      OFFSET -3.193511 7.451388 0.000000
      CHANNELS 3 Yrotation Xrotation Zrotation
      JOINT RightShoulder
      {
       OFFSET -15.792092 0.000000 0.000000
       CHANNELS 3 Yrotation Xrotation Zrotation
       JOINT RightElbow
       {
        OFFSET -31.151839 0.000000 0.000000
        CHANNELS 3 Yrotation Xrotation Zrotation
        JOINT RightWrist
        {
         OFFSET -25.536298 0.000000 0.002321
         CHANNELS 3 Yrotation Xrotation Zrotation
         End Site
         {
          OFFSET -19.133213 0.000000 0.000000
         }
        }
       }
      }
     }
     JOINT LeftCollar
     {
      OFFSET 3.193511 7.451388 0.000000
      CHANNELS 3 Yrotation Xrotation Zrotation
      JOINT LeftShoulder
      {
       OFFSET 15.792092 0.000000 0.000000
       CHANNELS 3 Yrotation Xrotation Zrotation
       JOINT LeftElbow
       {
        OFFSET 31.151839 0.000000 0.000000
        CHANNELS 3 Yrotation Xrotation Zrotation
        JOINT LeftWrist
        {
         OFFSET 25.536298 0.000000 0.002321
         CHANNELS 3 Yrotation Xrotation Zrotation
         End Site
         {
          OFFSET 19.133213 0.000000 0.000000
         }
        }
       }
      }
     }
    }
   }
  }
 }
 JOINT RightHip
 {
  OFFSET -10.745749 0.139252 0.014209
  CHANNELS 3 Yrotation Xrotation Zrotation
  JOINT RightKnee
  {
   OFFSET 0.000000 -43.743899 -0.006071
   CHANNELS 3 Yrotation Xrotation Zrotation
   JOINT RightAnkle
   {
    OFFSET 0.000000 -43.214199 0.089931
    CHANNELS 3 Yrotation Xrotation Zrotation
    JOINT RightToe
    {
     OFFSET 0.000000 -9.699830 19.151588
     CHANNELS 3 Yrotation Xrotation Zrotation
     End Site
     {
      OFFSET 0.000000 -1.292898 4.893873
     }
    }
   }
  }
 }
 JOINT LeftHip
 {
  OFFSET 10.745749 0.139252 0.014209
  CHANNELS 3 Yrotation Xrotation Zrotation
  JOINT LeftKnee
  {
   OFFSET 0.000000 -43.743899 -0.006071
   CHANNELS 3 Yrotation Xrotation Zrotation
   JOINT LeftAnkle
   {
    OFFSET 0.000000 -43.214199 0.089931
    CHANNELS 3 Yrotation Xrotation Zrotation
    JOINT LeftToe
    {
     OFFSET 0.000000 -9.699830 19.151588
     CHANNELS 3 Yrotation Xrotation Zrotation
     End Site
     {
      OFFSET 0.000000 -1.292898 4.893873
     }
    }
   }
  }
 }
}
MOTION
Frames: 12
Frame Time: 0.016667
-81.407218 98.325832 39.047442 63.520963 -9.125579 3.481367 -1.770296 10.320444 2.374399 -0.836511 4.577797 1.090394 -0.836511 4.577797 1.090394 -0.635234 3.431877 0.823639 -9.690913 23.807056 4.194920 -18.446644 9.200300 9.912207 4.716562 0.732590 5.808046 1.641990 -25.803921 67.040434 2.258455 21.820133 -5.168105 -5.617205 23.566419 -29.054472 -0.755132 -2.783345 -10.643491 -2.580350 -7.170533 -76.992501 -8.660762 15.495218 0.243267 8.247734 17.943566 9.631690 -11.948636 14.299054 -0.709567 -1.682392 0.528419 -0.584409 -11.310601 -7.842669 -0.789134 0.000000 0.000000 0.000000 15.737975 -3.940011 7.682586 -0.964698 23.783197 1.179739 2.344422 2.022145 -7.158791 0.300735 -11.238187 -3.149927
-81.433517 98.341009 38.838714 63.603565 -9.048683 3.577211 -1.772503 10.288003 2.315835 -0.836034 4.563590 1.064426 -0.836033 4.563590 1.064426 -0.634657 3.421258 0.804153 -9.702038 23.801050 4.193588 -18.466890 9.190791 9.913260 4.651800 0.768642 5.876641 1.569437 -25.801949 66.964691 2.293605 21.833176 -5.096242 -5.595958 23.608298 -29.520809 -0.833152 -2.713532 -10.513507 -2.646498 -7.289874 -77.048658 -8.726613 15.461690 0.242609 8.317569 17.952998 9.618255 -11.926746 14.143043 -0.925577 -2.035621 0.514373 -0.422890 -11.057720 -7.709727 -0.886543 0.000000 0.000000 0.000000 15.723149 -3.870891 7.403757 -0.860730 23.414925 1.374540 2.373973 2.048686 -7.346096 0.267523 -10.838308 -3.044658
-81.459817 98.356185 38.629987 63.686279 -8.971922 3.673147 -1.774712 10.255653 2.257222 -0.835571 4.549425 1.038433 -0.835571 4.549424 1.038433 -0.634095 3.410668 0.784649 -9.713172 23.795057 4.192250 -18.487153 9.181313 9.914301 4.587152 0.804732 5.945283 1.496746 -25.800063 66.889080 2.328767 21.846262 -5.024381 -5.575104 23.649771 -29.987340 -0.910893 -2.643669 -10.383489 -2.712503 -7.409332 -77.104640 -8.792436 15.428162 0.242057 8.387396 17.962456 9.604817 -11.904484 13.987510 -1.141854 -2.389095 0.501930 -0.261692 -10.805054 -7.576653 -0.983600 0.000000 0.000000 0.000000 15.707587 -3.801548 7.125054 -0.759120 23.046152 1.567760 2.404247 2.075563 -7.533198 0.236003 -10.438462 -2.939276
-81.486188 98.378701 38.422048 63.769397 -8.882328 3.762498 -1.766734 10.220538 2.201481 -0.830659 4.534073 1.013477 -0.830659 4.534073 1.013477 -0.630203 3.399197 0.765886 -9.724838 23.786302 4.193987 -18.509393 9.167397 9.921348 4.509871 0.852766 6.003528 1.404252 -25.749536 66.858480 2.410604 21.831132 -4.945517 -5.461434 23.701311 -30.989190 -0.984865 -2.578618 -10.252265 -2.769132 -7.515626 -77.163757 -8.869381 15.396641 0.250582 8.453550 17.980295 9.591548 -11.870163 13.809630 -1.350067 -2.721565 0.498455 -0.105625 -10.583170 -7.451302 -1.080571 0.000000 0.000000 0.000000 15.733391 -3.744366 6.938308 -0.634620 22.712760 1.647632 2.299152 1.925599 -7.639928 0.175475 -9.236484 -2.597560
-81.513245 98.416536 38.218128 63.840358 -8.773368 3.849062 -1.738717 10.181200 2.147721 -0.816910 4.516926 0.988944 -0.816909 4.516929 0.988945 -0.619688 3.386395 0.747374 -9.738954 23.774288 4.198013 -18.536923 9.148309 9.933521 4.410927 0.917651 6.044307 1.284932 -25.634986 66.894324 2.543137 21.762719 -4.847221 -5.229795 23.771925 -32.867336 -1.053515 -2.525242 -10.116142 -2.809051 -7.602657 -77.231207 -8.954765 15.377999 0.272594 8.515302 18.015539 9.575799 -11.806308 13.591469 -1.550990 -3.033134 0.515331 0.043551 -10.397117 -7.339385 -1.181053 0.000000 0.000000 0.000000 15.823128 -3.705579 6.891805 -0.449950 22.437307 1.544454 2.007822 1.521248 -7.621437 0.075894 -6.353228 -1.777112
-81.540373 98.461711 38.014997 63.911758 -8.651535 3.929076 -1.700554 10.139167 2.096706 -0.798728 4.498608 0.965399 -0.798729 4.498610 0.965400 -0.605859 3.372715 0.729569 -9.753624 23.759509 4.205092 -18.566485 9.124806 9.951676 4.299412 0.994573 6.074803 1.146536 -25.471485 66.974852 2.722249 21.666247 -4.741873 -4.907554 23.864080 -35.281135 -1.118385 -2.476855 -9.978729 -2.839664 -7.676350 -77.302023 -9.051369 15.361395 0.303474 8.573396 18.059178 9.560313 -11.730347 13.351064 -1.744290 -3.323612 0.540744 0.187302 -10.241700 -7.235297 -1.281542 0.000000 0.000000 0.000000 15.955019 -3.679037 6.936992 -0.239813 22.199959 1.327331 1.577247 0.941231 -7.523286 0.009544 -2.664249 -0.740568
-81.565797 98.497623 37.803750 64.021547 -8.523420 3.984677 -1.671685 10.096043 2.053853 -0.784841 4.479725 0.945670 -0.784841 4.479725 0.945670 -0.595277 3.358596 0.714655 -9.763672 23.740650 4.220616 -18.590220 9.094617 9.984419 4.189829 1.080861 6.105984 0.991655 -25.255932 67.080098 2.982415 21.588732 -4.659922 -4.483454 23.981104 -37.744596 -1.180556 -2.418007 -9.849742 -2.873920 -7.741454 -77.364287 -9.178557 15.316294 0.338659 8.626407 18.092497 9.553387 -11.683146 13.119422 -1.919877 -3.571418 0.546918 0.325934 -10.132058 -7.129964 -1.371717 0.000000 0.000000 0.000000 16.104795 -3.658446 7.020445 -0.086078 21.971832 1.092878 1.018825 0.242640 -7.400298 -0.000000 0.000000 0.000000
-81.588189 98.516179 37.580916 64.181164 -8.388127 4.007805 -1.661177 10.049811 2.023456 -0.779348 4.459332 0.931850 -0.779347 4.459330 0.931849 -0.591028 3.343325 0.704231 -9.765747 23.716411 4.243666 -18.602075 9.054677 10.029546 4.086420 1.174797 6.139159 0.853152 -24.962642 67.203579 3.338920 21.495062 -4.644191 -3.924453 24.152457 -40.264558 -1.238959 -2.339195 -9.732818 -2.908301 -7.792710 -77.417757 -9.359737 15.230834 0.375352 8.674734 18.102694 9.553573 -11.701695 12.907299 -2.081381 -3.745230 0.517695 0.468172 -10.071680 -7.020652 -1.450825 0.000000 0.000000 0.000000 16.234680 -3.641828 7.135283 -0.021871 21.754332 0.843745 0.279149 -0.614583 -7.230689 0.000852 0.685767 0.185962
-81.608876 98.525471 37.349967 64.378947 -8.246449 4.006887 -1.659970 10.002401 2.001230 -0.778152 4.438346 0.921847 -0.778151 4.438345 0.921846 -0.590029 3.327600 0.696701 -9.763249 23.688014 4.275097 -18.608229 9.007924 10.089197 3.985047 1.278099 6.173109 0.699513 -24.617176 67.351165 3.776259 21.420561 -4.652913 -3.273299 24.364822 -42.837425 -1.294517 -2.249919 -9.624210 -2.946462 -7.835355 -77.462603 -9.571633 15.116969 0.416311 8.717990 18.102556 9.562384 -11.749405 12.703686 -2.224802 -3.876640 0.468471 0.605780 -10.056979 -6.910103 -1.519821 0.000000 0.000000 0.000000 16.382812 -3.631991 7.288194 -0.013803 21.545602 0.578176 -0.591397 -1.587874 -7.027662 -0.000735 0.343375 0.091176
-81.630067 98.533178 37.112413 64.618117 -8.107516 3.988883 -1.660322 9.961337 1.979769 -0.777691 4.420171 0.912234 -0.777691 4.420171 0.912234 -0.589590 3.313984 0.689471 -9.761132 23.657881 4.322963 -18.619208 8.961050 10.178500 3.887776 1.393210 6.215092 0.436365 -24.292933 67.521660 4.282840 21.517424 -4.589302 -2.632486 24.543753 -44.964361 -1.351247 -2.163182 -9.522509 -3.012099 -7.889963 -77.487425 -9.763597 14.979905 0.465413 8.753470 18.111738 9.592485 -11.757047 12.507004 -2.329021 -4.038358 0.418933 0.713698 -10.092475 -6.797438 -1.571015 0.000000 0.000000 0.000000 16.638466 -3.629749 7.445931 -0.044359 21.309350 0.385603 -1.418660 -2.500524 -6.905739 -0.000000 -0.000000 0.000000
-81.652683 98.540786 36.870265 64.894776 -7.971582 3.953986 -1.658180 9.929789 1.957916 -0.776156 4.406238 0.902421 -0.776157 4.406239 0.902421 -0.588349 3.303549 0.682088 -9.760471 23.622784 4.394970 -18.639192 8.909865 10.311910 3.795899 1.530901 6.268744 -0.037876 -24.032366 67.734965 4.912063 21.868813 -4.398296 -2.011426 24.630995 -46.451489 -1.408452 -2.082391 -9.431070 -3.120285 -7.962813 -77.482470 -9.921005 14.810552 0.524627 8.774341 18.139323 9.643835 -11.678115 12.316784 -2.374121 -4.271011 0.372346 0.773534 -10.181075 -6.680758 -1.598927 0.000000 0.000000 0.000000 17.074655 -3.631650 7.593162 -0.152582 21.011602 0.317674 -2.264081 -3.337419 -7.007486 -0.000000 -0.000000 -0.000000
-81.675802 98.546807 36.621512 65.212669 -7.838109 3.902273 -1.657623 9.904622 1.936849 -0.775365 4.395132 0.893008 -0.775365 4.395133 0.893008 -0.587673 3.295233 0.675014 -9.760226 23.585762 4.483348 -18.664164 8.858425 10.474923 3.708597 1.680341 6.330845 -0.621174 -23.790741 67.972227 5.614195 22.390256 -4.130870 -1.397192 24.672882 -47.496328 -1.466753 -2.004142 -9.346378 -3.256021 -8.047531 -77.457316 -10.058795 14.618035 0.591942 8.787077 18.176253 9.716253 -11.559623 12.133121 -2.381385 -4.533718 0.325568 0.803435 -10.319701 -6.561777 -1.609384 -0.000000 0.000000 -0.000000 17.618434 -3.642327 7.743957 -0.299783 20.683838 0.320551 -3.057052 -4.117968 -7.198609 -0.000000 -0.000000 0.000000
